<svg xmlns="http://www.w3.org/2000/svg" viewBox="0 0 1920 1080"><path d="M262.65 0c16.78 7.55 33 15.93 48.86 24.91a1.54 1.54 0 0 0 1.1 1.28h1.09C325.71 33 337.44 40.26 349 47.7l3 2c44.94 29.26 86.41 61.69 126.23 90.32l3.41 2.44c15.08 10.79 29.94 21 44.66 30.23l3.06 1.93c3.94 2.44 7.88 4.8 11.81 7.09l1.68 1c20.41 11.82 40.65 21.52 61 28 7.65 2.45 15.4 4.7 23.2 6.85l3.14.83c26.18 7.09 53.17 12.74 80.87 17.56a2 2 0 0 0 1.81.74 2 2 0 0 0 .86-.29c33.18 5.7 67.3 10.35 102.16 15.07l2.79.38 16.92 2.31 5 .69q16.15 2.22 32.49 4.62l3.2.47q15.16 2.23 30.45 4.68l3.78.6c10.78 1.76 21.61 3.68 32.47 5.69l3.17.59c129.07 24.18 263.12 68.33 390.36 187 72.84 67.95 97 169.32 164.67 232 146.8 136 329.33 138.75 344.35 138.73v.52c-177 93.57-266.94 168.28-391 147.77-204.13-33.75-282.1-85.81-431.47-36-28.13 9.37-55.26 19.4-81.76 29.33l-3.83 1.41c-32.28 12.1-63.61 23.92-94.46 34.18-.05-.06 0-.09-.09-.15l-2.45 1c-42.67 14.07-84.54 24.88-126.93 28.85l-5.69.46a348.27 348.27 0 0 1-55.89.2 207.15 207.15 0 0 1-30.3-4.86l-4.39-1.07q-6.28-1.6-12.45-3.54l-2.21-.68a275.08 275.08 0 0 1-29.89-11.79l-4.5-2.12c-21.86-10.48-42.86-23.44-63.47-37.34l-3.45-2.4c-19.39-13.19-38.5-27.06-57.73-40.3l-6.59-4.5c-14.52-9.85-29.14-19.22-44.06-27.56l-4.1-2.24a293.06 293.06 0 0 0-46.71-20.72l-1.4-.47a208.81 208.81 0 0 0-32.57-7.95L298.9 868a184.66 184.66 0 0 0-26.64-1c-4.18.15-8.19.51-12.28.76l-6 .37c-42.28 3.18-79.79 11.68-112.79 23.8l-6.19 2.52A377.4 377.4 0 0 0 0 984v96h1920V0z" fill="#1c1c1c"/></svg>